<svg width="198" height="198" viewBox="0 0 198 198" fill="none" xmlns="http://www.w3.org/2000/svg">
<path d="M98.7583 197.575C153.301 197.575 197.517 153.346 197.517 98.7874C197.517 44.2286 153.301 0 98.7583 0C44.2156 0 0 44.2286 0 98.7874C0 153.346 44.2156 197.575 98.7583 197.575Z" fill="url(#paint0_linear_523_3433)"/>
<path d="M98.7583 197.575C153.301 197.575 197.517 153.346 197.517 98.7874C197.517 44.2286 153.301 0 98.7583 0C44.2156 0 0 44.2286 0 98.7874C0 153.346 44.2156 197.575 98.7583 197.575Z" fill="url(#paint1_linear_523_3433)"/>
<path d="M130.719 92.9575C148.427 100.412 157.139 118.257 151.361 136.724C147.424 149.328 136.207 159.51 124.187 164.113C109.033 169.934 88.682 169.561 73.7354 163.359C43.4201 150.796 36.3482 115.91 39.3583 86.8871C41.4549 66.5718 49.9108 46.7686 68.5802 36.5867C82.648 28.8828 100.653 27.7891 116.057 31.0147C132.048 34.3648 145.029 43.8269 152.897 58.1549C155.326 62.5503 157.291 67.4093 158.758 72.8152C158.8 73.0229 158.717 73.2374 158.509 73.279L147.375 76.2138C147.168 76.2553 146.953 76.1307 146.911 75.9646C145.237 69.5966 142.6 63.9415 138.954 59.0063C127.564 43.5085 106.673 39.3623 88.6682 42.5879C67.4385 46.4018 55.7165 61.3112 52.2843 81.7858C49.4818 98.4119 50.3606 117.675 58.0207 133.007C64.4699 145.909 76.1504 153.149 90.2182 155.163C97.7953 156.209 105.206 156.084 112.451 154.741C122.838 152.817 133.972 145.944 138.49 136.101C141.424 129.733 141.715 121.655 138.49 115.329C136.65 111.729 133.882 108.836 130.242 106.663C130.076 106.538 129.82 106.621 129.737 106.787C129.695 106.829 129.695 106.87 129.695 106.912C129.273 110.013 128.567 113.065 127.516 116.042C126.007 120.271 123.834 123.919 120.942 126.888C111.227 136.897 94.3148 137.776 82.8834 130.57C73.7563 124.791 70.3241 112.982 74.6766 103.264C79.1951 93.2136 90.2528 88.8599 100.757 88.3546C106.701 88.0639 112.188 88.313 117.254 89.026C117.461 89.0675 117.627 88.9014 117.676 88.6937V88.5692C117.212 86.2642 116.672 84.3815 116.001 82.9141C112.486 75.1686 104.57 73.1129 96.6605 74.1165C91.5953 74.7464 87.6164 77.1344 84.6409 81.239C84.5163 81.4051 84.3088 81.4467 84.1358 81.3221L74.6766 74.871C74.5105 74.7464 74.4691 74.5387 74.5936 74.3242C79.6589 67.2017 86.5231 63.0555 95.235 61.9273C102.438 60.9652 110.514 62.0934 116.797 65.9073C126.215 71.687 129.564 82.0765 130.401 92.5838C130.484 92.7914 130.567 92.916 130.692 92.9575H130.719ZM85.5405 109.376C83.6583 115.702 88.0109 120.686 93.9134 122.188C102.203 124.285 111.413 122.437 115.351 113.937C116.901 110.587 117.821 106.649 118.112 102.17C118.112 101.963 117.987 101.797 117.821 101.797C111.669 100.585 105.345 100.329 98.8956 100.959C93.6643 101.506 87.1736 103.894 85.5405 109.376Z" fill="white"/>
<defs>
<linearGradient id="paint0_linear_523_3433" x1="0" y1="98.7874" x2="197.517" y2="98.7874" gradientUnits="userSpaceOnUse">
<stop stop-color="#131B27"/>
<stop offset="0.25" stop-color="#182231"/>
<stop offset="0.5" stop-color="#1C283A"/>
<stop offset="0.75" stop-color="#1F2C40"/>
<stop offset="1" stop-color="#223046"/>
</linearGradient>
<linearGradient id="paint1_linear_523_3433" x1="0" y1="98.7874" x2="197.517" y2="98.7874" gradientUnits="userSpaceOnUse">
<stop stop-color="#131B27"/>
<stop offset="0.25" stop-color="#182231"/>
<stop offset="0.5" stop-color="#1C283A"/>
<stop offset="0.75" stop-color="#1F2C40"/>
<stop offset="1" stop-color="#223046"/>
</linearGradient>
</defs>
</svg>
