<svg width="198" height="198" viewBox="0 0 198 198" fill="none" xmlns="http://www.w3.org/2000/svg">
<path d="M197.503 98.7874C197.503 148.679 160.531 189.926 112.501 196.62C108.01 197.243 103.415 197.568 98.7513 197.568C93.3678 197.568 88.0811 197.139 82.9329 196.308C35.9133 188.736 0 147.953 0 98.7874C0 44.23 44.217 0 98.7583 0C153.3 0 197.517 44.23 197.517 98.7874H197.503Z" fill="url(#paint0_linear_523_3429)"/>
<path d="M40.0533 43.5742L85.5988 104.486L39.7695 154.011H50.0869L90.2143 110.653L122.633 154.011H157.737L109.631 89.6731L152.291 43.5742H141.974L105.022 83.5059L75.1639 43.5742H40.0601H40.0533ZM55.2212 51.1743H71.3442L142.555 146.411H126.432L55.2212 51.1743Z" fill="white"/>
<defs>
<linearGradient id="paint0_linear_523_3429" x1="0" y1="98.7839" x2="197.517" y2="98.7839" gradientUnits="userSpaceOnUse">
<stop stop-color="#131B27"/>
<stop offset="0.25" stop-color="#182231"/>
<stop offset="0.5" stop-color="#1C283A"/>
<stop offset="0.75" stop-color="#1F2C40"/>
<stop offset="1" stop-color="#223046"/>
</linearGradient>
</defs>
</svg>
