<svg width="198" height="198" viewBox="0 0 198 198" fill="none" xmlns="http://www.w3.org/2000/svg">
<path d="M98.9798 0H98.53C44.1134 0 0 44.1264 0 98.559V99.0089C0 153.441 44.1134 197.568 98.53 197.568H98.9798C153.396 197.568 197.51 153.441 197.51 99.0089V98.559C197.51 44.1264 153.396 0 98.9798 0Z" fill="url(#paint0_linear_523_3601)"/>
<path d="M70.847 60.7707C82.0405 69.293 94.0804 86.5726 98.5008 95.8459C102.922 86.5733 114.961 69.2928 126.155 60.7707C134.231 54.6214 147.317 49.8634 147.317 65.0036C147.317 68.0273 145.608 90.4043 144.605 94.0372C141.12 106.667 128.421 109.889 117.125 107.939C136.871 111.347 141.894 122.636 131.046 133.925C110.443 155.365 101.434 128.546 99.1247 121.674C98.7015 120.414 98.5035 119.825 98.5005 120.326C98.4976 119.825 98.2996 120.414 97.8764 121.674C95.5679 128.546 86.5589 155.366 65.9554 133.925C55.1073 122.636 60.1302 111.347 79.876 107.939C68.5795 109.889 55.8801 106.667 52.3956 94.0372C51.393 90.404 49.6836 68.027 49.6836 65.0036C49.6836 49.8634 62.7702 54.6214 70.8465 60.7707H70.847Z" fill="white"/>
<defs>
<linearGradient id="paint0_linear_523_3601" x1="0" y1="98.7839" x2="197.51" y2="98.7839" gradientUnits="userSpaceOnUse">
<stop stop-color="#131B27"/>
<stop offset="0.25" stop-color="#182231"/>
<stop offset="0.5" stop-color="#1C283A"/>
<stop offset="0.75" stop-color="#1F2C40"/>
<stop offset="1" stop-color="#223046"/>
</linearGradient>
</defs>
</svg>
