<svg width="198" height="198" viewBox="0 0 198 198" fill="none" xmlns="http://www.w3.org/2000/svg">
<path d="M98.9797 0H98.53C44.1134 0 0 44.1264 0 98.559V99.0089C0 153.441 44.1134 197.568 98.53 197.568H98.9797C153.396 197.568 197.51 153.441 197.51 99.0089V98.559C197.51 44.1264 153.396 0 98.9797 0Z" fill="url(#paint0_linear_523_3405)"/>
<path d="M129.317 40.1953H68.2018C51.3177 40.1953 37.582 53.935 37.582 70.8241V126.752C37.582 143.641 51.3177 157.381 68.2018 157.381H129.317C146.201 157.381 159.937 143.641 159.937 126.752V70.8241C159.937 53.935 146.201 40.1953 129.317 40.1953ZM48.3837 70.8241C48.3837 59.8946 57.2756 51.0002 68.2018 51.0002H129.317C140.243 51.0002 149.135 59.8946 149.135 70.8241V126.752C149.135 137.681 140.243 146.576 129.317 146.576H68.2018C57.2756 146.576 48.3837 137.681 48.3837 126.752V70.8241Z" fill="white"/>
<path d="M98.759 127.273C114.46 127.273 127.241 114.495 127.241 98.7829C127.241 83.0705 114.467 70.293 98.759 70.293C83.0512 70.293 70.2773 83.0705 70.2773 98.7829C70.2773 114.495 83.0512 127.273 98.759 127.273ZM98.759 81.1048C108.509 81.1048 116.439 89.0371 116.439 98.7898C116.439 108.543 108.509 116.475 98.759 116.475C89.0091 116.475 81.079 108.543 81.079 98.7898C81.079 89.0371 89.0091 81.1048 98.759 81.1048Z" fill="white"/>
<path d="M129.877 74.8955C134.105 74.8955 137.551 71.4553 137.551 67.2192C137.551 62.9831 134.112 59.543 129.877 59.543C125.642 59.543 122.203 62.9831 122.203 67.2192C122.203 71.4553 125.642 74.8955 129.877 74.8955Z" fill="white"/>
<defs>
<linearGradient id="paint0_linear_523_3405" x1="0" y1="98.7839" x2="197.51" y2="98.7839" gradientUnits="userSpaceOnUse">
<stop stop-color="#131B27"/>
<stop offset="0.25" stop-color="#182231"/>
<stop offset="0.5" stop-color="#1C283A"/>
<stop offset="0.75" stop-color="#1F2C40"/>
<stop offset="1" stop-color="#223046"/>
</linearGradient>
</defs>
</svg>
