<svg width="198" height="198" viewBox="0 0 198 198" fill="none" xmlns="http://www.w3.org/2000/svg">
<path d="M99.0071 0H98.5574C44.1408 0 0.0273438 44.1264 0.0273438 98.559V99.0089C0.0273438 153.442 44.1408 197.568 98.5574 197.568H99.0071C153.424 197.568 197.537 153.442 197.537 99.0089V98.559C197.537 44.1264 153.424 0 99.0071 0Z" fill="url(#paint0_linear_523_3367)"/>
<path d="M47.1301 65.6654C44.5283 63.2497 43.2344 60.2596 43.2344 56.7018C43.2344 53.144 44.5352 50.0223 47.1301 47.5997C49.7319 45.184 53.0811 43.9727 57.1845 43.9727C61.2879 43.9727 64.5056 45.184 67.1005 47.5997C69.7023 50.0153 70.9962 53.054 70.9962 56.7018C70.9962 60.3496 69.6954 63.2497 67.1005 65.6654C64.4987 68.0811 61.1979 69.2924 57.1845 69.2924C53.171 69.2924 49.7319 68.0811 47.1301 65.6654ZM68.8096 79.5228V153.586H45.414V79.5228H68.8096Z" fill="#FEFFFC"/>
<path d="M146.69 86.8374C151.79 92.3748 154.336 99.9749 154.336 109.652V152.276H132.117V112.656C132.117 107.776 130.851 103.983 128.325 101.283C125.799 98.5836 122.395 97.2269 118.132 97.2269C113.87 97.2269 110.465 98.5767 107.939 101.283C105.414 103.983 104.147 107.776 104.147 112.656V152.276H81.7969V79.3134H104.147V88.99C106.41 85.7645 109.462 83.2173 113.295 81.3415C117.129 79.4657 121.44 78.5312 126.235 78.5312C134.774 78.5312 141.597 81.2999 146.69 86.8304V86.8374Z" fill="#FEFFFC"/>
<defs>
<linearGradient id="paint0_linear_523_3367" x1="0.0273438" y1="98.7839" x2="197.537" y2="98.7839" gradientUnits="userSpaceOnUse">
<stop stop-color="#131B27"/>
<stop offset="0.25" stop-color="#182231"/>
<stop offset="0.5" stop-color="#1C283A"/>
<stop offset="0.75" stop-color="#1F2C40"/>
<stop offset="1" stop-color="#223046"/>
</linearGradient>
</defs>
</svg>
