<svg width="198" height="198" viewBox="0 0 198 198" fill="none" xmlns="http://www.w3.org/2000/svg">
<path d="M197.503 98.7874C197.503 148.679 160.531 189.926 112.501 196.62C108.01 197.243 103.415 197.568 98.7514 197.568C93.3678 197.568 88.0812 197.139 82.9329 196.308C35.9134 188.736 0 147.953 0 98.7874C0 44.23 44.217 0 98.7583 0C153.3 0 197.517 44.23 197.517 98.7874H197.503Z" fill="url(#paint0_linear_523_3426)"/>
<path d="M112.499 79.3239V100.844H139.112L134.898 129.832H112.499V196.62C108.008 197.243 103.413 197.568 98.7495 197.568C93.3659 197.568 88.0793 197.139 82.931 196.309V129.832H58.3867V100.844H82.931V74.5133C82.931 58.178 96.1684 44.9297 112.506 44.9297V44.9435C112.554 44.9435 112.596 44.9297 112.644 44.9297H139.119V70.0003H121.82C116.678 70.0003 112.506 74.1742 112.506 79.317L112.499 79.3239Z" fill="white"/>
<defs>
<linearGradient id="paint0_linear_523_3426" x1="0" y1="98.7839" x2="197.517" y2="98.7839" gradientUnits="userSpaceOnUse">
<stop stop-color="#131B27"/>
<stop offset="0.25" stop-color="#182231"/>
<stop offset="0.5" stop-color="#1C283A"/>
<stop offset="0.75" stop-color="#1F2C40"/>
<stop offset="1" stop-color="#223046"/>
</linearGradient>
</defs>
</svg>
