<svg width="198" height="198" viewBox="0 0 198 198" fill="none" xmlns="http://www.w3.org/2000/svg">
<path d="M98.9798 0H98.53C44.1134 0 0 44.1264 0 98.559V99.0089C0 153.441 44.1134 197.568 98.53 197.568H98.9798C153.396 197.568 197.51 153.441 197.51 99.0089V98.559C197.51 44.1264 153.396 0 98.9798 0Z" fill="url(#paint0_linear_523_3600)"/>
<path d="M145.742 71.2058V89.8599C142.482 89.5415 138.247 88.8009 133.563 87.0843C127.446 84.8417 122.893 81.7753 119.91 79.4012V117.104L119.834 116.986C119.883 117.734 119.91 118.495 119.91 119.264C119.91 137.987 104.68 153.229 85.9551 153.229C67.2303 153.229 52 137.987 52 119.264C52 100.54 67.2303 85.2916 85.9551 85.2916C87.7888 85.2916 89.588 85.4369 91.3456 85.7207V104.105C89.6572 103.503 87.8442 103.177 85.9551 103.177C77.0909 103.177 69.8737 110.39 69.8737 119.264C69.8737 128.137 77.0909 135.35 85.9551 135.35C94.8193 135.35 102.037 128.13 102.037 119.264C102.037 118.931 102.03 118.599 102.009 118.267V45H120.644C120.713 46.5782 120.775 48.1702 120.844 49.7484C120.969 52.8562 122.076 55.8395 124.007 58.2829C126.269 61.1554 129.612 64.4917 134.303 67.1566C138.697 69.6415 142.821 70.7143 145.742 71.2196V71.2058Z" fill="white"/>
<defs>
<linearGradient id="paint0_linear_523_3600" x1="0" y1="98.7839" x2="197.51" y2="98.7839" gradientUnits="userSpaceOnUse">
<stop stop-color="#131B27"/>
<stop offset="0.25" stop-color="#182231"/>
<stop offset="0.5" stop-color="#1C283A"/>
<stop offset="0.75" stop-color="#1F2C40"/>
<stop offset="1" stop-color="#223046"/>
</linearGradient>
</defs>
</svg>
